<svg xmlns="http://www.w3.org/2000/svg" xmlns:xlink="http://www.w3.org/1999/xlink" width="1826" height="745" style="background:#424bac" viewBox="0 0 1826 745">
  <defs>
    <circle id="dnsimple-data-logic-ui-a" cx="292" cy="394" r="165"/>
    <circle id="dnsimple-data-logic-ui-b" cx="292" cy="394" r="97"/>
    <circle id="dnsimple-data-logic-ui-c" cx="292.5" cy="394.5" r="35.5"/>
    <circle id="dnsimple-data-logic-ui-d" cx="704" cy="394" r="165"/>
    <path id="dnsimple-data-logic-ui-e" d="M703.939375,490.745456 C717.332747,490.745456 726.832751,468.13575 742.220122,459.719811 C756.103785,452.126307 788.940706,460.849126 795.573473,449.292105 C802.392883,437.409876 782.587627,422.147272 781.851586,405.919401 C780.925318,385.497498 797.738516,364.767208 795.573473,361.056467 C790.184076,348.229838 767.857554,361.671469 751.940605,341.882439 C740.394432,327.527456 726.448126,297 703.939375,297 C689.85733,297 671.477713,310.507701 666.002163,324.456115 C660.685656,337.999381 668.204064,351.853533 659.498418,361.056467 C653.971378,366.899225 636.930064,359.051759 629.072134,361.056467 C613.590802,365.006051 607,376.782127 607,393.872728 C607,410.181431 633.254069,421.95461 640.377563,435.439211 C648.849422,451.476234 642.99215,473.750613 652.83852,483.813157 C661.87328,493.046272 686.130186,490.745456 703.939375,490.745456 Z"/>
    <circle id="dnsimple-data-logic-ui-f" cx="165" cy="165" r="165"/>
    <circle id="dnsimple-data-logic-ui-g" cx="165" cy="165" r="97"/>
    <circle id="dnsimple-data-logic-ui-h" cx="165.5" cy="165.5" r="35.5"/>
    <circle id="dnsimple-data-logic-ui-i" cx="1528" cy="394" r="165"/>
    <circle id="dnsimple-data-logic-ui-j" cx="1528" cy="394" r="97"/>
    <circle id="dnsimple-data-logic-ui-k" cx="1528.5" cy="394.5" r="35.5"/>
  </defs>
  <g fill="none" fill-rule="evenodd">
    <path fill="#FFF" d="M10.25,0.675 C9.775,0.675 9.3,0.7 8.85,0.8 L8.85,5.45 C8.2,5.2 7.45,5.075 6.45,5.075 C2.9,5.075 0,7.5 0,11.4 C0,15.4 2.65,17.6 6.55,17.6 C8.475,17.6 10.45,17.075 11.675,16.425 L11.675,0.8 C11.2,0.7 10.7,0.675 10.25,0.675 Z M6.5,15.125 C4.35,15.125 2.875,13.675 2.875,11.35 C2.875,9.05 4.45,7.575 6.55,7.575 C7.4,7.575 8.175,7.675 8.85,8.1 L8.85,14.75 C8.1,15.025 7.325,15.15 6.5,15.125 Z M20.475,5.025 C17.925,5.025 15.85,6.025 14.8,6.9 L14.8,17.225 C15.275,17.325 15.75,17.35 16.2,17.35 C16.675,17.35 17.175,17.325 17.625,17.225 L17.625,8.275 C18.175,7.95 19.15,7.625 20.25,7.625 C22.075,7.625 23.125,8.45 23.125,10.625 L23.125,17.225 C23.625,17.325 24.075,17.35 24.55,17.35 C25,17.35 25.5,17.325 25.975,17.225 L25.975,9.95 C25.975,7.225 24.3,5.025 20.475,5.025 Z M33.15,17.625 C36.4,17.625 38.3,16.125 38.3,13.65 C38.3,11.3 36.425,10.425 33.85,10.025 C31.825,9.7 31.3,9.325 31.3,8.55 C31.3,7.8 31.95,7.325 33.45,7.325 C34.875,7.325 36.1,7.75 36.925,8.225 C37.5,7.775 37.875,7.075 38,6.2 C37.225,5.65 35.7,5.05 33.55,5.05 C30.55,5.05 28.575,6.55 28.575,8.75 C28.575,11.25 30.575,12.025 32.675,12.35 C34.8,12.675 35.475,13.125 35.475,13.925 C35.475,14.725 34.875,15.35 33.2,15.35 C31.325,15.35 30.275,14.7 29.55,14.175 C28.95,14.55 28.475,15.225 28.25,16.125 C28.925,16.7 30.5,17.625 33.15,17.625 Z M42.25,3.6 C43.225,3.6 44.05,2.8 44.05,1.8 C44.05,0.8 43.225,0 42.25,0 C41.225,0 40.4,0.8 40.4,1.8 C40.4,2.8 41.225,3.6 42.25,3.6 Z M42.25,17.35 C42.725,17.35 43.2,17.325 43.65,17.225 L43.65,5.4 C43.2,5.3 42.7,5.275 42.25,5.275 C41.775,5.275 41.3,5.3 40.825,5.4 L40.825,17.225 C41.3,17.325 41.8,17.35 42.25,17.35 Z M60.325,5.025 C58.725,5.025 57.275,5.65 56.3,6.4 C55.425,5.55 54.125,5.025 52.425,5.025 C49.95,5.025 47.8,6.075 46.85,6.9 L46.85,17.225 C47.325,17.325 47.8,17.35 48.25,17.35 C48.725,17.35 49.225,17.325 49.675,17.225 L49.675,8.275 C50.3,7.9 51.175,7.625 52.1,7.625 C54.025,7.625 54.75,8.85 54.75,10.55 L54.75,17.225 C55.225,17.325 55.7,17.35 56.2,17.35 C56.65,17.35 57.15,17.325 57.6,17.225 L57.6,9.7 C57.6,9.325 57.55,8.95 57.475,8.6 C58.05,8.125 58.85,7.625 60,7.625 C61.925,7.625 62.675,8.85 62.675,10.55 L62.675,17.225 C63.125,17.325 63.6,17.35 64.1,17.35 C64.55,17.35 65.05,17.325 65.5,17.225 L65.5,9.7 C65.5,7.125 63.75,5.025 60.325,5.025 L60.325,5.025 Z M73.825,5.05 C71.575,5.05 69.7,5.925 68.55,6.875 L68.55,21.85 C69.05,21.95 69.5,21.975 69.975,21.975 C70.45,21.975 70.925,21.95 71.375,21.85 L71.375,17.25 C72.125,17.5 72.925,17.6 73.925,17.6 C77.225,17.6 80.2,15.275 80.2,11.275 C80.2,7.175 77.45,5.05 73.825,5.05 Z M73.725,15.075 C72.8,15.075 72.05,14.925 71.375,14.6 L71.375,8.225 C72.1,7.825 72.875,7.65 73.7,7.65 C75.875,7.65 77.35,9.025 77.35,11.3 C77.35,13.65 75.875,15.075 73.725,15.075 L73.725,15.075 Z M84.2,17.35 C84.675,17.35 85.175,17.325 85.625,17.225 L85.625,0.825 C85.15,0.725 84.65,0.7 84.175,0.7 C83.7,0.7 83.225,0.725 82.775,0.825 L82.775,17.225 C83.275,17.325 83.75,17.35 84.2,17.35 L84.2,17.35 Z M99.575,10.4 C99.575,7.225 97.325,5.05 94.15,5.05 C90.775,5.05 88.2,7.7 88.2,11.375 C88.2,15.25 90.75,17.6 94.3,17.6 C96.675,17.6 98.225,16.725 99.225,15.925 C99.125,15.2 98.625,14.4 98,14 C97.225,14.55 96.225,15.225 94.5,15.225 C92.525,15.225 91.325,14.025 91.1,12.075 L99.475,12.075 C99.55,11.425 99.575,11.025 99.575,10.4 L99.575,10.4 Z M91.125,10.2 C91.325,8.575 92.4,7.35 94.15,7.35 C96.075,7.375 96.8,8.8 96.8,10.2 L91.125,10.2 L91.125,10.2 Z" transform="translate(69 66)"/>
    <text fill="#FFF" font-family="Roboto-Bold, Roboto" font-size="24" font-weight="bold">
      <tspan x="250" y="616">Our app</tspan>
    </text>
    <text fill="#FFF" font-family="Roboto-Bold, Roboto" font-size="24" font-weight="bold">
      <tspan x="1042" y="616">How we see it</tspan>
    </text>
    <text fill="#FFF" font-family="Roboto-Bold, Roboto" font-size="24" font-weight="bold">
      <tspan x="615" y="616">How users see it</tspan>
    </text>
    <use fill="#FFF" fill-opacity=".2" xlink:href="#dnsimple-data-logic-ui-a"/>
    <circle cx="292" cy="394" r="162.5" stroke="#FFF" stroke-width="5"/>
    <use fill="#FFF" fill-opacity=".2" xlink:href="#dnsimple-data-logic-ui-b"/>
    <circle cx="292" cy="394" r="94.5" stroke="#FFF" stroke-width="5"/>
    <use fill="#FFF" xlink:href="#dnsimple-data-logic-ui-c"/>
    <circle cx="292.5" cy="394.5" r="33" stroke="#FFF" stroke-width="5"/>
    <text fill="#FFF" font-family="Roboto-Medium, Roboto" font-size="21" font-weight="400">
      <tspan x="228" y="280">user interface</tspan>
    </text>
    <text fill="#FFF" font-family="Roboto-Medium, Roboto" font-size="21" font-weight="400">
      <tspan x="270" y="340">logic</tspan>
    </text>
    <text fill="#4B3BAE" font-family="Roboto-Medium, Roboto" font-size="21" font-weight="400">
      <tspan x="272" y="401">data</tspan>
    </text>
    <use fill="#FFF" fill-opacity=".2" xlink:href="#dnsimple-data-logic-ui-d"/>
    <circle cx="704" cy="394" r="162.5" stroke="#FFF" stroke-width="5"/>
    <use fill="#FFF" fill-opacity=".2" xlink:href="#dnsimple-data-logic-ui-e"/>
    <path stroke="#FFF" stroke-width="5" d="M793.261073,362.006874 C791.747694,358.4233 789.051145,357.478103 780.346517,356.800525 C772.814573,356.214231 769.594408,355.759652 765.209428,354.264469 C759.347569,352.265702 754.316761,348.825461 749.992556,343.449317 C748.169538,341.182817 746.298331,338.564044 743.624769,334.614934 C742.917662,333.570468 740.436174,329.875748 740.276897,329.639334 C738.91243,327.614059 737.840498,326.044225 736.776502,324.521903 C724.965939,307.623831 715.429141,299.5 703.939375,299.5 C691.012415,299.5 673.477772,312.254374 668.329279,325.369642 C668.033264,326.123711 667.775439,326.893505 667.553155,327.682242 C666.438904,331.635957 666.268299,334.939533 666.464375,342.087522 C666.615789,347.607333 666.575588,349.908201 666.093988,352.782891 C665.432957,356.728608 663.94423,359.994613 661.314572,362.774484 C659.323361,364.879438 656.433246,365.743455 652.670848,365.761024 C650.021703,365.773395 647.35477,365.430456 642.71338,364.612322 C642.451421,364.566147 642.195863,364.520847 641.807957,364.451909 C634.704661,363.189522 631.922864,362.909266 629.690137,363.478878 C616.000152,366.971455 609.5,377.084061 609.5,393.872728 C609.5,400.750259 614.018164,406.385825 626.207791,416.941594 C630.934954,421.035144 631.14336,421.217177 632.837846,422.770429 C637.587547,427.124245 640.669789,430.640193 642.588077,434.271466 C645.297213,439.399794 646.761409,445.150861 647.698795,452.827584 C647.955435,454.929333 648.092374,456.318203 648.469488,460.420792 C649.643881,473.196919 650.863822,478.22055 654.625377,482.064688 C659.415129,486.959598 669.394955,488.620148 686.882423,488.492174 C689.041035,488.476377 690.890868,488.445939 694.569259,488.373216 C699.550318,488.27474 701.461712,488.245456 703.939375,488.245456 C707.872172,488.245456 711.800852,485.822852 716.908292,480.575265 C718.035303,479.417329 719.213613,478.134855 720.68537,476.478274 C721.405779,475.667396 724.050435,472.655251 724.61145,472.02177 C731.179288,464.605563 735.621597,460.479299 741.020484,457.526442 C746.442372,454.561005 752.965211,453.786476 766.339965,453.575861 C766.814465,453.568389 767.176102,453.563003 768.054068,453.550164 C784.813692,453.30508 791.017673,452.207739 793.405193,448.047693 C794.840808,445.54626 794.848014,442.682389 793.526615,438.937786 C792.461409,435.919186 791.569288,434.258928 787.252294,426.809999 C781.889356,417.556304 779.637335,412.276115 779.354154,406.032676 C779.336596,405.645575 779.32492,405.256801 779.319062,404.866354 C779.189279,396.215956 781.731125,387.458147 786.517807,377.01637 C787.672193,374.498167 791.30117,367.116424 791.80978,366.004525 C792.487384,364.523176 792.915709,363.438183 793.128939,362.654067 C793.205117,362.373938 793.24725,362.15477 793.261073,362.006874 Z"/>
    <text fill="#FFF" font-family="Roboto-Medium, Roboto" font-size="21" font-weight="400">
      <tspan x="640" y="280">user interface</tspan>
    </text>
    <text fill="#FFF" font-family="Roboto-Medium, Roboto" font-size="21" font-weight="400">
      <tspan x="675" y="400">magic</tspan>
    </text>
    <circle cx="299.5" cy="414.5" r="10.5" fill="#F4CB12"/>
    <g transform="translate(952 229)">
      <use fill="#FFF" fill-opacity=".2" xlink:href="#dnsimple-data-logic-ui-f"/>
      <circle cx="165" cy="165" r="162.5" stroke="#FFF" stroke-width="5"/>
      <use fill="#FFF" fill-opacity=".2" xlink:href="#dnsimple-data-logic-ui-g"/>
      <circle cx="165" cy="165" r="94.5" stroke="#FFF" stroke-width="5"/>
      <path fill="#A2A1D7" d="M123.866914,118.123432 L21.5074054,118.123432 L21.5074054,118.123432 C20.4028359,118.123432 19.5074054,119.018862 19.5074054,120.123432 L19.5074054,121.123432 C19.5074054,122.228001 20.4028359,123.123432 21.5074054,123.123432 L123.866914,123.123432 L123.866914,129.725994 C123.866914,129.90824 123.916717,130.087021 124.010943,130.243018 C124.296487,130.715758 124.911198,130.86751 125.383938,130.581965 L140.12746,121.67658 C140.266251,121.592747 140.382575,121.476423 140.466408,121.337633 C140.751952,120.864893 140.6002,120.250182 140.12746,119.964638 L140.12746,119.964638 L125.383938,111.059252 C125.227941,110.965027 125.04916,110.915223 124.866914,110.915223 C124.314629,110.915223 123.866914,111.362939 123.866914,111.915223 L123.866914,118.123432 Z" transform="rotate(-151 80.059 120.82)"/>
      <path fill="#A2A1D7" d="M293.866914,118.123432 L191.507405,118.123432 L191.507405,118.123432 C190.402836,118.123432 189.507405,119.018862 189.507405,120.123432 L189.507405,121.123432 C189.507405,122.228001 190.402836,123.123432 191.507405,123.123432 L293.866914,123.123432 L293.866914,129.725994 C293.866914,129.90824 293.916717,130.087021 294.010943,130.243018 C294.296487,130.715758 294.911198,130.86751 295.383938,130.581965 L310.12746,121.67658 C310.266251,121.592747 310.382575,121.476423 310.466408,121.337633 C310.751952,120.864893 310.6002,120.250182 310.12746,119.964638 L310.12746,119.964638 L295.383938,111.059252 C295.227941,110.965027 295.04916,110.915223 294.866914,110.915223 C294.314629,110.915223 293.866914,111.362939 293.866914,111.915223 L293.866914,118.123432 Z" transform="scale(1 -1) rotate(29 717.238 0)"/>
      <path fill="#A2A1D7" d="M209.359508,69.2082085 L107,69.2082085 L107,69.2082085 C105.895431,69.2082085 105,70.103639 105,71.2082085 L105,72.2082085 C105,73.312778 105.895431,74.2082085 107,74.2082085 L209.359508,74.2082085 L209.359508,80.810771 C209.359508,80.9930168 209.409312,81.1717976 209.503537,81.3277948 C209.789082,81.8005345 210.403793,81.9522864 210.876532,81.666742 L225.620055,72.7613565 C225.758846,72.6775241 225.87517,72.5612 225.959002,72.4224093 C226.244546,71.9496695 226.092795,71.3349588 225.620055,71.0494145 L225.620055,71.0494145 L210.876532,62.144029 C210.720535,62.0498035 210.541754,62 210.359508,62 C209.807224,62 209.359508,62.4477153 209.359508,63 L209.359508,69.2082085 Z" transform="rotate(-90 165.552 71.905)"/>
      <use fill="#FFF" xlink:href="#dnsimple-data-logic-ui-h"/>
      <circle cx="165.5" cy="165.5" r="33" stroke="#FFF" stroke-width="5"/>
      <text fill="#FFF" font-family="Roboto-Medium, Roboto" font-size="21" font-weight="400">
        <tspan x="101" y="51">user interface</tspan>
      </text>
      <text fill="#FFF" font-family="Roboto-Medium, Roboto" font-size="21" font-weight="400">
        <tspan x="143" y="111">logic</tspan>
      </text>
      <text fill="#4B3BAE" font-family="Roboto-Medium, Roboto" font-size="21" font-weight="400">
        <tspan x="145" y="172">data</tspan>
      </text>
    </g>
    <use fill="#FFF" fill-opacity=".2" xlink:href="#dnsimple-data-logic-ui-i"/>
    <circle cx="1528" cy="394" r="162.5" stroke="#FFF" stroke-width="5"/>
    <text fill="#FFF" font-family="Roboto-Bold, Roboto" font-size="24" font-weight="bold">
      <tspan x="1414" y="616">How we should see it</tspan>
    </text>
    <use fill="#FFF" fill-opacity=".2" xlink:href="#dnsimple-data-logic-ui-j"/>
    <circle cx="1528" cy="394" r="94.5" stroke="#FFF" stroke-width="5"/>
    <path fill="#A2A1D7" d="M1487.2363,347.295955 L1385.00436,347.295955 L1385.00436,347.295955 C1383.89979,347.295955 1383.00436,348.191385 1383.00436,349.295955 L1383.00436,349.295955 L1383.00436,350.343676 C1383.00436,351.448246 1383.89979,352.343676 1385.00436,352.343676 L1487.26243,352.343676 L1487.29666,358.958171 C1487.29759,359.137836 1487.34691,359.313932 1487.43943,359.467947 C1487.72383,359.941376 1488.33817,360.094615 1488.8116,359.810215 L1488.8116,359.810215 L1503.58552,350.935186 C1503.72452,350.851686 1503.84113,350.735637 1503.9253,350.597041 C1504.21198,350.124988 1504.0617,349.509915 1503.58965,349.223238 L1488.72306,340.194801 L1488.72306,340.194801 C1488.56509,340.098866 1488.38363,340.048586 1488.19881,340.049543 C1487.64654,340.052401 1487.20114,340.502428 1487.204,341.054705 L1487.2363,347.295955 Z" transform="rotate(30 1443.538 350.001)"/>
    <path fill="#A2A1D7" d="M1657.16122,347.295955 L1554.92928,347.295955 L1554.92928,347.295955 C1553.82471,347.295955 1552.92928,348.191385 1552.92928,349.295955 L1552.92928,349.295955 L1552.92928,350.343676 C1552.92928,351.448246 1553.82471,352.343676 1554.92928,352.343676 L1657.18735,352.343676 L1657.22158,358.958171 C1657.22251,359.137836 1657.27183,359.313932 1657.36435,359.467947 C1657.64875,359.941376 1658.26309,360.094615 1658.73652,359.810215 L1658.73652,359.810215 L1673.51044,350.935186 C1673.64944,350.851686 1673.76605,350.735637 1673.85022,350.597041 C1674.1369,350.124988 1673.98662,349.509915 1673.51457,349.223238 L1658.64798,340.194801 L1658.64798,340.194801 C1658.49001,340.098866 1658.30855,340.048586 1658.12373,340.049543 C1657.57146,340.052401 1657.12606,340.502428 1657.12892,341.054705 L1657.16122,347.295955 Z" transform="scale(-1 1) rotate(30 0 -5671.523)"/>
    <path fill="#A2A1D7" d="M1572.21638,298.327797 L1469.98443,298.327797 L1469.98443,298.327797 C1468.87986,298.327797 1467.98443,299.223227 1467.98443,300.327797 L1467.98443,300.327797 L1467.98443,301.375518 C1467.98443,302.480087 1468.87986,303.375518 1469.98443,303.375518 L1572.2425,303.375518 L1572.27673,309.990013 C1572.27766,310.169678 1572.32698,310.345774 1572.4195,310.499788 C1572.7039,310.973218 1573.31824,311.126457 1573.79167,310.842057 L1573.79167,310.842057 L1588.5656,301.967028 C1588.7046,301.883528 1588.82121,301.767479 1588.90537,301.628883 C1589.19205,301.156829 1589.04177,300.541757 1588.56972,300.25508 L1573.70313,291.226642 L1573.70313,291.226642 C1573.54516,291.130708 1573.3637,291.080428 1573.17888,291.081385 C1572.62661,291.084243 1572.18121,291.534269 1572.18407,292.086547 L1572.21638,298.327797 Z" transform="rotate(90 1528.518 301.033)"/>
    <use fill="#FFF" xlink:href="#dnsimple-data-logic-ui-k"/>
    <circle cx="1528.5" cy="394.5" r="33" stroke="#FFF" stroke-width="5"/>
    <text fill="#FFF" font-family="Roboto-Medium, Roboto" font-size="21" font-weight="400">
      <tspan x="1464" y="280">user interface</tspan>
    </text>
    <text fill="#FFF" font-family="Roboto-Medium, Roboto" font-size="21" font-weight="400">
      <tspan x="1506" y="340">logic</tspan>
    </text>
    <text fill="#4B3BAE" font-family="Roboto-Medium, Roboto" font-size="21" font-weight="400">
      <tspan x="1508" y="401">data</tspan>
    </text>
    <circle cx="399.5" cy="229.5" r="10.5" fill="#5FB963"/>
    <circle cx="589.5" cy="229.5" r="10.5" fill="#5FB963"/>
    <circle cx="1122.5" cy="415.5" r="10.5" fill="#F4CB12"/>
    <g transform="translate(1300 66)">
      <rect width="460" height="60" fill="#000" fill-opacity=".2" rx="3"/>
      <text fill="#FFF" font-family="Roboto-Medium, Roboto" font-size="21" font-weight="400">
        <tspan x="49" y="36">our perspective</tspan>
      </text>
      <text fill="#FFF" font-family="Roboto-Medium, Roboto" font-size="21" font-weight="400">
        <tspan x="281" y="36">user perspective</tspan>
      </text>
      <circle cx="30.5" cy="30.5" r="10.5" fill="#F4CB12"/>
      <circle cx="262.5" cy="30.5" r="10.5" fill="#5FB963"/>
    </g>
    <text fill="#A29FEB" font-family="Roboto-Medium, Roboto" font-size="18" font-weight="400">
      <tspan x="69.234" y="109">We automate your domain management</tspan>
    </text>
    <path fill="#A2A1D7" d="M1327.89224,395.832127 L1308,395.832127 L1308,395.832127 C1306.89543,395.832127 1306,396.727558 1306,397.832127 L1306,397.832127 L1306,398.832127 C1306,399.936697 1306.89543,400.832127 1308,400.832127 L1327.88763,400.832127 L1327.88193,407.00565 C1327.88171,407.241757 1327.96504,407.470326 1328.11717,407.650891 C1328.47302,408.073255 1329.10388,408.127179 1329.52624,407.771332 L1339.63386,399.255564 C1339.67744,399.218848 1339.7178,399.178474 1339.7545,399.134883 C1340.11021,398.712406 1340.05609,398.081559 1339.63362,397.725845 L1329.54171,389.228724 L1329.54171,389.228724 C1329.36167,389.077132 1329.13392,388.993903 1328.89856,388.993685 C1328.34627,388.993176 1327.89814,389.440477 1327.89763,389.992762 L1327.89763,389.992762 L1327.89224,395.832127 Z"/>
  </g>
</svg>
